<?xml version="1.0" encoding="UTF-8" standalone="no"?> <!-- Created with Vectornator for iOS (http://vectornator.io/) --><!DOCTYPE svg PUBLIC "-//W3C//DTD SVG 1.1//EN" "http://www.w3.org/Graphics/SVG/1.1/DTD/svg11.dtd">
<svg height="100%" style="fill-rule:evenodd;clip-rule:evenodd;stroke-linecap:round;stroke-linejoin:round;" xmlns:xlink="http://www.w3.org/1999/xlink" xmlns="http://www.w3.org/2000/svg" xml:space="preserve" width="100%" xmlns:vectornator="http://vectornator.io" version="1.1" viewBox="0 0 3840 580">
<metadata>
<vectornator:setting key="DisplayWhiteBackground" value="0"/>
<vectornator:setting key="RulersVisible" value="1"/>
<vectornator:setting key="SnapToEdges" value="1"/>
<vectornator:setting key="Units" value="Pixels"/>
<vectornator:setting key="New" value="1"/>
<vectornator:setting key="DynamicGuides" value="1"/>
<vectornator:setting key="SnapToPoints" value="1"/>
<vectornator:setting key="CMYKEnabledKey" value="0"/>
<vectornator:setting key="SnapToGrid" value="1"/>
<vectornator:setting key="SnapToGuides" value="1"/>
<vectornator:setting key="GridSpacing" value="36"/>
</metadata>
<defs/>
<g id="Layer 1" vectornator:layerName="Layer 1">
<g opacity="1">
<path d="M212.49+401.841L212.49+130.132L265.376+130.132L265.376+262.729L383.027+129.749L437.829+129.749L333.591+250.466L444.343+401.841L388.392+401.841L301.783+280.358L265.376+319.83L265.376+401.841L212.49+401.841Z" opacity="1" fill="#707070"/>
<path d="M517.923+405.674C508.215+405.674+499.145+404.077+490.714+400.883C482.283+397.69+475.002+393.219+468.87+387.47C462.738+381.722+457.948+375.015+454.499+367.351C451.05+359.686+449.325+351.255+449.325+342.058C449.325+332.605+451.433+323.854+455.649+315.806C459.864+307.759+465.74+300.924+473.277+295.304C480.814+289.683+489.82+285.276+500.295+282.082C510.77+278.889+522.267+277.292+534.785+277.292C543.727+277.292+552.478+278.059+561.036+279.591C569.595+281.124+577.196+283.296+583.839+286.106L583.839+274.609C583.839+261.324+580.07+251.105+572.533+243.951C564.997+236.798+553.819+233.221+539.001+233.221C528.27+233.221+517.796+235.137+507.576+238.969C497.357+242.802+486.882+248.422+476.151+255.831L460.439+223.257C486.243+206.139+514.091+197.581+543.983+197.581C572.853+197.581+595.272+204.67+611.239+218.85C627.207+233.029+635.191+253.532+635.191+280.358L635.191+342.824C635.191+348.189+636.213+352.022+638.257+354.321C640.301+356.62+643.878+357.898+648.987+358.153L648.987+401.841C644.133+402.863+639.598+403.566+635.383+403.949C631.167+404.332+627.527+404.524+624.461+404.524C614.752+404.268+607.343+402.033+602.234+397.817C597.124+393.602+593.93+387.917+592.653+380.764L591.503+369.65C582.561+381.402+571.703+390.344+558.929+396.476C546.154+402.608+532.486+405.674+517.923+405.674ZM532.486+368.117C541.172+368.117+549.412+366.584+557.204+363.518C564.997+360.453+571.064+356.365+575.408+351.255C581.028+346.912+583.839+342.058+583.839+336.692L583.839+313.699C577.707+311.399+571.064+309.547+563.911+308.142C556.757+306.737+549.859+306.034+543.216+306.034C529.931+306.034+519.073+309.036+510.642+315.04C502.211+321.044+497.995+328.645+497.995+337.842C497.995+346.529+501.317+353.746+507.959+359.495C514.602+365.243+522.778+368.117+532.486+368.117Z" opacity="1" fill="#707070"/>
<path d="M804.961+391.494C798.063+394.56+789.568+397.626+779.477+400.692C769.385+403.757+758.846+405.29+747.86+405.29C740.707+405.29+734+404.396+727.741+402.608C721.481+400.819+715.988+397.945+711.262+393.985C706.535+390.025+702.767+384.915+699.957+378.656C697.146+372.397+695.741+364.796+695.741+355.854L695.741+240.502L669.682+240.502L669.682+201.03L695.741+201.03L695.741+135.881L747.094+135.881L747.094+201.03L789.632+201.03L789.632+240.502L747.094+240.502L747.094+338.609C747.094+345.762+749.01+350.808+752.842+353.746C756.674+356.684+761.273+358.153+766.638+358.153C772.004+358.153+777.241+357.259+782.351+355.471C787.46+353.682+791.548+352.149+794.614+350.872L804.961+391.494Z" opacity="1" fill="#707070"/>
<path d="M1017.27+401.841L965.917+401.841L965.917+289.172C965.917+273.332+962.979+261.644+957.103+254.107C951.227+246.57+942.923+242.802+932.193+242.802C927.594+242.802+922.74+243.823+917.63+245.867C912.521+247.911+907.666+250.785+903.068+254.49C898.469+258.195+894.253+262.602+890.421+267.711C886.589+272.821+883.779+278.442+881.99+284.573L881.99+401.841L830.638+401.841L830.638+122.085L881.99+122.085L881.99+238.203C889.399+225.173+899.427+215.145+912.074+208.119C924.72+201.094+938.708+197.581+954.037+197.581C967.067+197.581+977.669+199.816+985.845+204.287C994.021+208.758+1000.41+214.698+1005.01+222.107C1009.61+229.516+1012.8+237.947+1014.59+247.4C1016.38+256.853+1017.27+266.562+1017.27+276.526L1017.27+401.841Z" opacity="1" fill="#707070"/>
<path d="M1154.85+405.674C1138.75+405.674+1124.19+402.927+1111.16+397.434C1098.13+391.941+1087.02+384.468+1077.82+375.015C1068.62+365.562+1061.53+354.576+1056.55+342.058C1051.57+329.539+1049.08+316.381+1049.08+302.585C1049.08+288.278+1051.5+274.801+1056.36+262.155C1061.21+249.508+1068.24+238.394+1077.44+228.814C1086.63+219.233+1097.81+211.632+1110.97+206.012C1124.13+200.391+1138.88+197.581+1155.23+197.581C1171.58+197.581+1186.21+200.391+1199.11+206.012C1212.01+211.632+1223+219.169+1232.07+228.622C1241.14+238.075+1248.04+249.061+1252.76+261.58C1257.49+274.098+1259.85+287.128+1259.85+300.669C1259.85+303.99+1259.79+307.184+1259.66+310.25C1259.53+313.316+1259.21+315.87+1258.7+317.914L1103.5+317.914C1104.26+325.834+1106.18+332.86+1109.24+338.992C1112.31+345.123+1116.27+350.361+1121.12+354.704C1125.98+359.047+1131.47+362.369+1137.6+364.668C1143.74+366.967+1150.12+368.117+1156.76+368.117C1166.98+368.117+1176.63+365.626+1185.7+360.644C1194.77+355.662+1200.96+349.083+1204.29+340.908L1248.36+353.171C1240.95+368.5+1229.13+381.083+1212.91+390.919C1196.68+400.755+1177.33+405.674+1154.85+405.674ZM1206.97+284.573C1205.69+269.5+1200.13+257.428+1190.3+248.358C1180.46+239.289+1168.52+234.754+1154.47+234.754C1147.57+234.754+1141.12+235.967+1135.11+238.394C1129.11+240.822+1123.81+244.207+1119.21+248.55C1114.61+252.893+1110.84+258.131+1107.9+264.262C1104.97+270.394+1103.24+277.164+1102.73+284.573L1206.97+284.573Z" opacity="1" fill="#707070"/>
<path d="M1410.85+245.484C1395.26+245.74+1381.34+248.742+1369.07+254.49C1356.81+260.238+1348+268.861+1342.63+280.358L1342.63+401.841L1291.28+401.841L1291.28+201.03L1338.41+201.03L1338.41+243.951C1345.31+230.155+1354.32+219.041+1365.43+210.61C1376.55+202.179+1388.23+197.964+1400.5+197.964C1403.31+197.964+1405.42+198.028+1406.82+198.155C1408.23+198.283+1409.57+198.475+1410.85+198.73L1410.85+245.484Z" opacity="1" fill="#707070"/>
<path d="M1439.59+401.841L1439.59+201.03L1490.94+201.03L1490.94+401.841L1439.59+401.841ZM1439.59+173.054L1439.59+122.085L1490.94+122.085L1490.94+173.054L1439.59+173.054Z" opacity="1" fill="#707070"/>
<path d="M1723.18+401.841L1671.82+401.841L1671.82+289.172C1671.82+273.077+1669.01+261.324+1663.39+253.915C1657.77+246.506+1649.98+242.802+1640.02+242.802C1634.91+242.802+1629.67+243.823+1624.3+245.867C1618.94+247.911+1613.89+250.785+1609.17+254.49C1604.44+258.195+1600.16+262.602+1596.33+267.711C1592.5+272.821+1589.68+278.442+1587.9+284.573L1587.9+401.841L1536.54+401.841L1536.54+201.03L1582.91+201.03L1582.91+238.203C1590.32+225.429+1601.05+215.465+1615.11+208.311C1629.16+201.157+1645+197.581+1662.63+197.581C1675.14+197.581+1685.36+199.88+1693.28+204.479C1701.2+209.077+1707.34+215.081+1711.68+222.49C1716.02+229.899+1719.02+238.331+1720.69+247.783C1722.35+257.236+1723.18+266.817+1723.18+276.526L1723.18+401.841Z" opacity="1" fill="#707070"/>
<path d="M1860.76+405.674C1844.66+405.674+1830.1+402.927+1817.07+397.434C1804.04+391.941+1792.92+384.468+1783.73+375.015C1774.53+365.562+1767.44+354.576+1762.46+342.058C1757.48+329.539+1754.98+316.381+1754.98+302.585C1754.98+288.278+1757.41+274.801+1762.27+262.155C1767.12+249.508+1774.15+238.394+1783.34+228.814C1792.54+219.233+1803.72+211.632+1816.88+206.012C1830.03+200.391+1844.79+197.581+1861.14+197.581C1877.49+197.581+1892.12+200.391+1905.02+206.012C1917.92+211.632+1928.91+219.169+1937.98+228.622C1947.05+238.075+1953.94+249.061+1958.67+261.58C1963.4+274.098+1965.76+287.128+1965.76+300.669C1965.76+303.99+1965.7+307.184+1965.57+310.25C1965.44+313.316+1965.12+315.87+1964.61+317.914L1809.4+317.914C1810.17+325.834+1812.09+332.86+1815.15+338.992C1818.22+345.123+1822.18+350.361+1827.03+354.704C1831.89+359.047+1837.38+362.369+1843.51+364.668C1849.64+366.967+1856.03+368.117+1862.67+368.117C1872.89+368.117+1882.54+365.626+1891.6+360.644C1900.67+355.662+1906.87+349.083+1910.19+340.908L1954.26+353.171C1946.85+368.5+1935.04+381.083+1918.81+390.919C1902.59+400.755+1883.24+405.674+1860.76+405.674ZM1912.87+284.573C1911.6+269.5+1906.04+257.428+1896.2+248.358C1886.37+239.289+1874.42+234.754+1860.37+234.754C1853.47+234.754+1847.02+235.967+1841.02+238.394C1835.01+240.822+1829.71+244.207+1825.11+248.55C1820.52+252.893+1816.75+258.131+1813.81+264.262C1810.87+270.394+1809.15+277.164+1808.64+284.573L1912.87+284.573Z" opacity="1" fill="#707070"/>
<path d="M2188.03+130.516L2236.7+130.516L2267.36+220.574L2298.02+130.516L2347.07+130.516L2300.7+254.298L2335.19+341.291L2412.22+129.749L2469.7+129.749L2358.95+401.841L2314.5+401.841L2267.36+287.639L2220.22+401.841L2175.77+401.841L2065.4+129.749L2122.5+129.749L2199.91+341.291L2233.64+254.298L2188.03+130.516Z" opacity="1" fill="#707070"/>
<path d="M2678.95+401.841L2627.59+401.841L2627.59+289.172C2627.59+273.332+2624.66+261.644+2618.78+254.107C2612.9+246.57+2604.6+242.802+2593.87+242.802C2589.27+242.802+2584.42+243.823+2579.31+245.867C2574.2+247.911+2569.34+250.785+2564.75+254.49C2560.15+258.195+2555.93+262.602+2552.1+267.711C2548.27+272.821+2545.46+278.442+2543.67+284.573L2543.67+401.841L2492.32+401.841L2492.32+122.085L2543.67+122.085L2543.67+238.203C2551.08+225.173+2561.1+215.145+2573.75+208.119C2586.4+201.094+2600.39+197.581+2615.71+197.581C2628.74+197.581+2639.35+199.816+2647.52+204.287C2655.7+208.758+2662.09+214.698+2666.68+222.107C2671.28+229.516+2674.48+237.947+2676.26+247.4C2678.05+256.853+2678.95+266.562+2678.95+276.526L2678.95+401.841Z" opacity="1" fill="#707070"/>
<path d="M2778.2+405.674C2768.49+405.674+2759.43+404.077+2750.99+400.883C2742.56+397.69+2735.28+393.219+2729.15+387.47C2723.02+381.722+2718.23+375.015+2714.78+367.351C2711.33+359.686+2709.61+351.255+2709.61+342.058C2709.61+332.605+2711.71+323.854+2715.93+315.806C2720.14+307.759+2726.02+300.924+2733.56+295.304C2741.09+289.683+2750.1+285.276+2760.57+282.082C2771.05+278.889+2782.55+277.292+2795.07+277.292C2804.01+277.292+2812.76+278.059+2821.32+279.591C2829.88+281.124+2837.48+283.296+2844.12+286.106L2844.12+274.609C2844.12+261.324+2840.35+251.105+2832.81+243.951C2825.28+236.798+2814.1+233.221+2799.28+233.221C2788.55+233.221+2778.08+235.137+2767.86+238.969C2757.64+242.802+2747.16+248.422+2736.43+255.831L2720.72+223.257C2746.52+206.139+2774.37+197.581+2804.26+197.581C2833.13+197.581+2855.55+204.67+2871.52+218.85C2887.49+233.029+2895.47+253.532+2895.47+280.358L2895.47+342.824C2895.47+348.189+2896.49+352.022+2898.54+354.321C2900.58+356.62+2904.16+357.898+2909.27+358.153L2909.27+401.841C2904.41+402.863+2899.88+403.566+2895.66+403.949C2891.45+404.332+2887.81+404.524+2884.74+404.524C2875.03+404.268+2867.62+402.033+2862.51+397.817C2857.4+393.602+2854.21+387.917+2852.93+380.764L2851.78+369.65C2842.84+381.402+2831.98+390.344+2819.21+396.476C2806.43+402.608+2792.77+405.674+2778.2+405.674ZM2792.77+368.117C2801.45+368.117+2809.69+366.584+2817.48+363.518C2825.28+360.453+2831.34+356.365+2835.69+351.255C2841.31+346.912+2844.12+342.058+2844.12+336.692L2844.12+313.699C2837.99+311.399+2831.34+309.547+2824.19+308.142C2817.04+306.737+2810.14+306.034+2803.5+306.034C2790.21+306.034+2779.35+309.036+2770.92+315.04C2762.49+321.044+2758.28+328.645+2758.28+337.842C2758.28+346.529+2761.6+353.746+2768.24+359.495C2774.88+365.243+2783.06+368.117+2792.77+368.117Z" opacity="1" fill="#707070"/>
<path d="M3064.09+245.484C3048.51+245.74+3034.58+248.742+3022.32+254.49C3010.06+260.238+3001.24+268.861+2995.88+280.358L2995.88+401.841L2944.52+401.841L2944.52+201.03L2991.66+201.03L2991.66+243.951C2998.56+230.155+3007.57+219.041+3018.68+210.61C3029.79+202.179+3041.48+197.964+3053.74+197.964C3056.55+197.964+3058.66+198.028+3060.07+198.155C3061.47+198.283+3062.81+198.475+3064.09+198.73L3064.09+245.484Z" opacity="1" fill="#707070"/>
<path d="M3213.55+391.494C3206.65+394.56+3198.16+397.626+3188.07+400.692C3177.97+403.757+3167.44+405.29+3156.45+405.29C3149.3+405.29+3142.59+404.396+3136.33+402.608C3130.07+400.819+3124.58+397.945+3119.85+393.985C3115.12+390.025+3111.36+384.915+3108.55+378.656C3105.74+372.397+3104.33+364.796+3104.33+355.854L3104.33+240.502L3078.27+240.502L3078.27+201.03L3104.33+201.03L3104.33+135.881L3155.68+135.881L3155.68+201.03L3198.22+201.03L3198.22+240.502L3155.68+240.502L3155.68+338.609C3155.68+345.762+3157.6+350.808+3161.43+353.746C3165.26+356.684+3169.86+358.153+3175.23+358.153C3180.59+358.153+3185.83+357.259+3190.94+355.471C3196.05+353.682+3200.14+352.149+3203.2+350.872L3213.55+391.494Z" opacity="1" fill="#707070"/>
<path d="M3332.35+405.674C3316+405.674+3301.31+402.863+3288.28+397.242C3275.25+391.622+3264.2+384.021+3255.13+374.44C3246.06+364.86+3239.1+353.81+3234.24+341.291C3229.39+328.772+3226.96+315.615+3226.96+301.819C3226.96+287.767+3229.39+274.482+3234.24+261.963C3239.1+249.444+3246.06+238.394+3255.13+228.814C3264.2+219.233+3275.25+211.632+3288.28+206.012C3301.31+200.391+3316+197.581+3332.35+197.581C3348.7+197.581+3363.33+200.391+3376.23+206.012C3389.13+211.632+3400.12+219.233+3409.19+228.814C3418.26+238.394+3425.22+249.444+3430.07+261.963C3434.93+274.482+3437.36+287.767+3437.36+301.819C3437.36+315.615+3434.93+328.772+3430.07+341.291C3425.22+353.81+3418.32+364.86+3409.38+374.44C3400.44+384.021+3389.45+391.622+3376.42+397.242C3363.39+402.863+3348.7+405.674+3332.35+405.674ZM3279.85+301.819C3279.85+310.761+3281.19+318.872+3283.87+326.154C3286.56+333.435+3290.26+339.758+3294.99+345.123C3299.71+350.489+3305.27+354.64+3311.66+357.578C3318.04+360.516+3324.94+361.985+3332.35+361.985C3339.76+361.985+3346.66+360.516+3353.05+357.578C3359.43+354.64+3364.99+350.489+3369.72+345.123C3374.44+339.758+3378.15+333.371+3380.83+325.962C3383.51+318.553+3384.85+310.377+3384.85+301.435C3384.85+292.749+3383.51+284.701+3380.83+277.292C3378.15+269.883+3374.44+263.496+3369.72+258.131C3364.99+252.765+3359.43+248.614+3353.05+245.676C3346.66+242.738+3339.76+241.269+3332.35+241.269C3324.94+241.269+3318.04+242.802+3311.66+245.867C3305.27+248.933+3299.71+253.149+3294.99+258.514C3290.26+263.879+3286.56+270.266+3283.87+277.675C3281.19+285.084+3279.85+293.132+3279.85+301.819Z" opacity="1" fill="#707070"/>
<path d="M3657.71+401.841L3606.36+401.841L3606.36+289.172C3606.36+273.077+3603.55+261.324+3597.93+253.915C3592.31+246.506+3584.52+242.802+3574.55+242.802C3569.44+242.802+3564.2+243.823+3558.84+245.867C3553.47+247.911+3548.43+250.785+3543.7+254.49C3538.98+258.195+3534.7+262.602+3530.86+267.711C3527.03+272.821+3524.22+278.442+3522.43+284.573L3522.43+401.841L3471.08+401.841L3471.08+201.03L3517.45+201.03L3517.45+238.203C3524.86+225.429+3535.59+215.465+3549.64+208.311C3563.69+201.157+3579.53+197.581+3597.16+197.581C3609.68+197.581+3619.9+199.88+3627.82+204.479C3635.74+209.077+3641.87+215.081+3646.22+222.49C3650.56+229.899+3653.56+238.331+3655.22+247.783C3656.88+257.236+3657.71+266.817+3657.71+276.526L3657.71+401.841Z" opacity="1" fill="#707070"/>
</g>
</g>
</svg>
